<?xml version="1.0" standalone="no"?>
<!DOCTYPE svg PUBLIC "-//W3C//DTD SVG 20010904//EN"
 "http://www.w3.org/TR/2001/REC-SVG-20010904/DTD/svg10.dtd">
<svg version="1.0" xmlns="http://www.w3.org/2000/svg"
 width="700.000000pt" height="700.000000pt" viewBox="0 0 700.000000 700.000000"
 preserveAspectRatio="xMidYMid meet">
<metadata>
Created by potrace 1.14, written by Peter Selinger 2001-2017
</metadata>
<g transform="translate(0.000000,700.000000) scale(0.100000,-0.100000)"
fill="#000000" stroke="none">
<path d="M3417 6344 c-1 -1 -52 -4 -114 -8 -61 -4 -120 -8 -131 -11 -10 -2
-43 -6 -73 -10 -30 -4 -76 -11 -104 -16 -27 -5 -66 -12 -85 -15 -64 -11 -342
-94 -434 -130 -50 -20 -138 -58 -195 -85 -88 -42 -144 -72 -300 -164 -36 -22
-189 -131 -250 -178 -443 -350 -784 -850 -951 -1396 -17 -57 -33 -111 -35
-120 -2 -9 -13 -56 -24 -106 -76 -342 -84 -796 -21 -1105 6 -25 12 -56 14 -70
17 -98 86 -343 121 -425 6 -16 27 -66 45 -110 97 -233 240 -472 410 -683 418
-520 1035 -889 1680 -1006 133 -24 138 -25 310 -42 75 -7 376 -8 435 0 22 3
69 8 105 11 57 5 118 14 200 29 105 19 246 55 369 96 577 188 1079 560 1439
1068 29 39 52 76 52 81 0 5 4 11 8 13 13 4 112 178 164 283 108 221 206 513
242 725 3 19 8 44 10 56 2 12 7 45 11 74 4 29 8 61 10 70 8 42 17 228 17 345
0 163 -12 303 -38 460 -26 152 -89 397 -123 480 -5 11 -30 72 -56 135 -136
333 -348 651 -608 912 -134 134 -167 163 -312 272 -439 329 -938 518 -1485
561 -76 6 -298 13 -303 9z m303 -448 c25 -3 71 -8 103 -11 48 -6 150 -26 305
-61 107 -23 328 -110 478 -188 731 -379 1220 -1109 1290 -1926 10 -108 9 -332
0 -430 -54 -564 -297 -1081 -697 -1480 -345 -345 -764 -568 -1249 -665 -214
-42 -569 -51 -780 -19 -42 6 -127 22 -155 28 -11 2 -42 9 -70 15 -252 57 -546
184 -773 335 -469 313 -832 802 -976 1316 -14 52 -30 109 -35 125 -5 17 -13
48 -17 70 -4 22 -8 42 -9 45 0 3 -5 30 -9 60 -4 30 -9 63 -11 72 -29 159 -24
534 10 708 2 14 6 36 9 50 2 14 15 72 29 130 49 200 107 355 202 537 238 458
610 822 1070 1048 190 93 403 168 565 199 153 29 186 34 290 42 47 3 86 7 87
8 5 4 301 -2 343 -8z"/>
<path d="M3388 5245 c-1 -1 -25 -5 -53 -8 -200 -21 -414 -114 -579 -251 -168
-138 -91 -386 122 -395 60 -3 98 13 183 78 124 95 266 140 440 140 214 0 386
-72 528 -222 23 -23 41 -47 41 -53 0 -6 6 -17 14 -23 26 -22 67 -153 70 -223
9 -206 -109 -381 -339 -502 -243 -129 -390 -271 -475 -459 -44 -99 -57 -175
-58 -357 -1 -178 9 -222 61 -278 85 -91 244 -85 324 13 43 52 51 88 52 252 2
133 4 153 26 200 34 76 124 158 241 223 147 80 221 130 295 198 395 365 417
939 50 1327 -160 168 -395 290 -640 329 -74 12 -293 20 -303 11z"/>
<path d="M3434 2179 c-51 -14 -120 -83 -138 -137 -50 -150 53 -292 211 -292
81 0 150 45 190 123 55 109 5 246 -107 295 -41 18 -112 22 -156 11z"/>
</g>
</svg>
